<mxfile host="app.diagrams.net" agent="Mozilla/5.0 (Windows NT 10.0; Win64; x64) AppleWebKit/537.36 (KHTML, like Gecko) Chrome/128.0.0.0 Safari/537.36 Edg/128.0.0.0" version="24.7.14">
  <diagram name="第 1 页" id="BHGqecpjXZMWBTluFIfV">
    <mxGraphModel dx="1564" dy="1024" grid="1" gridSize="10" guides="1" tooltips="1" connect="1" arrows="1" fold="1" page="1" pageScale="1" pageWidth="827" pageHeight="1169" math="0" shadow="0">
      <root>
        <mxCell id="0" />
        <mxCell id="1" parent="0" />
        <mxCell id="9xwmRr_SfZecpN7bH8Jz-2" value="&lt;font style=&quot;font-size: 16px;&quot;&gt;Raw Input&lt;/font&gt;" style="rounded=0;whiteSpace=wrap;html=1;fillColor=#d5e8d4;strokeColor=#82b366;" vertex="1" parent="1">
          <mxGeometry x="10" y="370" width="120" height="60" as="geometry" />
        </mxCell>
        <mxCell id="9xwmRr_SfZecpN7bH8Jz-3" value="" style="shape=flexArrow;endArrow=classic;html=1;rounded=0;" edge="1" parent="1">
          <mxGeometry width="50" height="50" relative="1" as="geometry">
            <mxPoint x="140" y="399.5" as="sourcePoint" />
            <mxPoint x="170" y="399.5" as="targetPoint" />
          </mxGeometry>
        </mxCell>
        <mxCell id="9xwmRr_SfZecpN7bH8Jz-5" value="" style="shape=flexArrow;endArrow=classic;html=1;rounded=0;" edge="1" parent="1">
          <mxGeometry width="50" height="50" relative="1" as="geometry">
            <mxPoint x="315" y="399.5" as="sourcePoint" />
            <mxPoint x="345" y="399.5" as="targetPoint" />
          </mxGeometry>
        </mxCell>
        <mxCell id="9xwmRr_SfZecpN7bH8Jz-6" value="" style="shape=flexArrow;endArrow=classic;html=1;rounded=0;" edge="1" parent="1">
          <mxGeometry width="50" height="50" relative="1" as="geometry">
            <mxPoint x="470" y="399.33000000000004" as="sourcePoint" />
            <mxPoint x="500" y="399.33000000000004" as="targetPoint" />
          </mxGeometry>
        </mxCell>
        <mxCell id="9xwmRr_SfZecpN7bH8Jz-7" value="&lt;font style=&quot;font-size: 16px;&quot;&gt;Unconstrained Outpu&lt;/font&gt;&lt;font style=&quot;font-size: 16px;&quot;&gt;&lt;font style=&quot;font-size: 16px;&quot;&gt;t &lt;b&gt;y&lt;/b&gt;&lt;/font&gt;&lt;span class=&quot;base&quot;&gt;&lt;span class=&quot;mrel&quot;&gt;∈&lt;/span&gt;&lt;span class=&quot;mspace&quot;&gt;&lt;/span&gt;&lt;/span&gt;&lt;span class=&quot;base&quot;&gt;&lt;span class=&quot;strut&quot;&gt;&lt;/span&gt;&lt;span class=&quot;mord&quot;&gt;&lt;span class=&quot;mord mathbb&quot;&gt;R&lt;sup&gt;l&lt;/sup&gt;&lt;/span&gt;&lt;/span&gt;&lt;span class=&quot;mord&quot;&gt;.&lt;/span&gt;&lt;/span&gt;&lt;/font&gt;" style="rounded=0;whiteSpace=wrap;html=1;" vertex="1" parent="1">
          <mxGeometry x="355" y="370" width="105" height="60" as="geometry" />
        </mxCell>
        <mxCell id="9xwmRr_SfZecpN7bH8Jz-12" value="&lt;font style=&quot;font-size: 16px;&quot;&gt;BregmanNet&lt;/font&gt;" style="rounded=0;whiteSpace=wrap;html=1;fillColor=#f8cecc;strokeColor=#b85450;" vertex="1" parent="1">
          <mxGeometry x="510" y="370" width="120" height="60" as="geometry" />
        </mxCell>
        <mxCell id="9xwmRr_SfZecpN7bH8Jz-13" value="" style="shape=flexArrow;endArrow=classic;html=1;rounded=0;" edge="1" parent="1">
          <mxGeometry width="50" height="50" relative="1" as="geometry">
            <mxPoint x="640" y="399.71000000000004" as="sourcePoint" />
            <mxPoint x="670" y="399.71000000000004" as="targetPoint" />
          </mxGeometry>
        </mxCell>
        <mxCell id="9xwmRr_SfZecpN7bH8Jz-14" value="&lt;span style=&quot;font-size: 16px;&quot; class=&quot;base&quot;&gt;&lt;span style=&quot;&quot; class=&quot;mord text&quot;&gt;&lt;span style=&quot;&quot; class=&quot;mord&quot;&gt;&lt;font style=&quot;font-size: 16px;&quot;&gt;Constrained&amp;nbsp;&lt;/font&gt;&lt;/span&gt;&lt;/span&gt;&lt;/span&gt;&lt;div style=&quot;font-size: 16px;&quot;&gt;&lt;font style=&quot;font-size: 16px;&quot;&gt;&lt;span style=&quot;&quot; class=&quot;base&quot;&gt;&lt;span class=&quot;mord text&quot;&gt;&lt;span class=&quot;mord&quot;&gt;Output&amp;nbsp;&lt;/span&gt;&lt;/span&gt;&lt;/span&gt;&lt;span style=&quot;background-color: initial;&quot;&gt;&lt;b&gt;x&lt;/b&gt;&lt;/span&gt;&lt;/font&gt;&lt;div style=&quot;font-size: 13px;&quot;&gt;&lt;div&gt;&lt;span class=&quot;base&quot;&gt;&lt;span class=&quot;mspace&quot;&gt;&lt;/span&gt;&lt;span class=&quot;mord text&quot;&gt;&lt;span class=&quot;mord&quot;&gt;&amp;nbsp;subject&amp;nbsp;to&amp;nbsp;&lt;/span&gt;&lt;/span&gt;&lt;span class=&quot;mspace&quot;&gt;&lt;/span&gt;&lt;span class=&quot;mord&quot;&gt;&lt;span class=&quot;mtable&quot;&gt;&lt;span class=&quot;col-align-r&quot;&gt;&lt;span class=&quot;vlist-t vlist-t2&quot;&gt;&lt;span class=&quot;vlist-r&quot;&gt;&lt;span class=&quot;vlist&quot;&gt;&lt;span class=&quot;pstrut&quot;&gt;&lt;/span&gt;&lt;span class=&quot;mord&quot;&gt;&lt;/span&gt;&lt;span class=&quot;pstrut&quot;&gt;&lt;/span&gt;&lt;span class=&quot;mord&quot;&gt;&lt;/span&gt;&lt;span class=&quot;pstrut&quot;&gt;&lt;/span&gt;&lt;span class=&quot;mord&quot;&gt;&lt;/span&gt;&lt;/span&gt;&lt;span class=&quot;vlist-s&quot;&gt;​&lt;/span&gt;&lt;/span&gt;&lt;span class=&quot;vlist-r&quot;&gt;&lt;span class=&quot;vlist&quot;&gt;&lt;/span&gt;&lt;/span&gt;&lt;/span&gt;&lt;/span&gt;&lt;span class=&quot;col-align-l&quot;&gt;&lt;span class=&quot;vlist-t vlist-t2&quot;&gt;&lt;span class=&quot;vlist-r&quot;&gt;&lt;span class=&quot;vlist&quot;&gt;&lt;span class=&quot;pstrut&quot;&gt;&lt;/span&gt;&lt;span class=&quot;mord&quot;&gt;&lt;span class=&quot;mord&quot;&gt;&lt;/span&gt;&lt;span class=&quot;mord mathnormal&quot;&gt;&lt;b&gt;A&lt;/b&gt;&lt;/span&gt;&lt;span class=&quot;mord mathnormal&quot;&gt;&lt;b&gt;x&lt;/b&gt;&amp;nbsp;&lt;/span&gt;&lt;span class=&quot;mspace&quot;&gt;&lt;/span&gt;&lt;span class=&quot;mrel&quot;&gt;≤&amp;nbsp;&lt;/span&gt;&lt;span class=&quot;mspace&quot;&gt;&lt;/span&gt;&lt;span class=&quot;mord mathnormal&quot;&gt;&lt;b&gt;b&lt;/b&gt;&lt;/span&gt;&lt;span class=&quot;mpunct&quot;&gt;,&amp;nbsp;&lt;/span&gt;&lt;/span&gt;&lt;span class=&quot;pstrut&quot;&gt;&lt;/span&gt;&lt;span class=&quot;mord&quot;&gt;&lt;span class=&quot;mord&quot;&gt;&lt;/span&gt;&lt;span class=&quot;mord mathnormal&quot;&gt;&lt;b&gt;C&lt;/b&gt;&lt;/span&gt;&lt;span class=&quot;mord mathnormal&quot;&gt;&lt;b&gt;x&lt;/b&gt;&amp;nbsp;&lt;/span&gt;&lt;span class=&quot;mspace&quot;&gt;&lt;/span&gt;&lt;span class=&quot;mrel&quot;&gt;≥&amp;nbsp;&lt;/span&gt;&lt;span class=&quot;mspace&quot;&gt;&lt;/span&gt;&lt;span class=&quot;mord mathnormal&quot;&gt;&lt;b&gt;d&lt;/b&gt;&lt;/span&gt;&lt;span class=&quot;mpunct&quot;&gt;,&amp;nbsp;&lt;/span&gt;&lt;/span&gt;&lt;span class=&quot;pstrut&quot;&gt;&lt;/span&gt;&lt;span class=&quot;mord&quot;&gt;&lt;span class=&quot;mord&quot;&gt;&lt;/span&gt;&lt;span class=&quot;mord mathnormal&quot;&gt;&lt;b&gt;E&lt;/b&gt;&lt;/span&gt;&lt;span class=&quot;mord mathnormal&quot;&gt;&lt;b&gt;x&lt;/b&gt;&amp;nbsp;&lt;/span&gt;&lt;span class=&quot;mspace&quot;&gt;&lt;/span&gt;&lt;span class=&quot;mrel&quot;&gt;=&amp;nbsp;&lt;/span&gt;&lt;span class=&quot;mspace&quot;&gt;&lt;/span&gt;&lt;span class=&quot;mord mathnormal&quot;&gt;&lt;b&gt;f&lt;/b&gt;&lt;/span&gt;&lt;span class=&quot;mord&quot;&gt;.&lt;/span&gt;&lt;/span&gt;&lt;/span&gt;&lt;span class=&quot;vlist-s&quot;&gt;​&lt;/span&gt;&lt;/span&gt;&lt;span class=&quot;vlist-r&quot;&gt;&lt;span class=&quot;vlist&quot;&gt;&lt;/span&gt;&lt;/span&gt;&lt;/span&gt;&lt;/span&gt;&lt;/span&gt;&lt;/span&gt;&lt;/span&gt;&lt;/div&gt;&lt;/div&gt;&lt;/div&gt;" style="rounded=0;whiteSpace=wrap;html=1;fillColor=#fff2cc;strokeColor=#d6b656;" vertex="1" parent="1">
          <mxGeometry x="677" y="345" width="143" height="110" as="geometry" />
        </mxCell>
        <mxCell id="9xwmRr_SfZecpN7bH8Jz-16" value="" style="shape=flexArrow;endArrow=classic;html=1;rounded=0;" edge="1" parent="1">
          <mxGeometry width="50" height="50" relative="1" as="geometry">
            <mxPoint x="569.71" y="330.00000000000006" as="sourcePoint" />
            <mxPoint x="569.71" y="360" as="targetPoint" />
          </mxGeometry>
        </mxCell>
        <mxCell id="9xwmRr_SfZecpN7bH8Jz-18" value="Positive Linear Constraints&lt;div&gt;&lt;div&gt;&lt;span style=&quot;background-color: initial; font-size: 13px;&quot; class=&quot;mord text&quot;&gt;&amp;nbsp;&lt;/span&gt;&lt;span style=&quot;background-color: initial; font-size: 13px;&quot; class=&quot;mord&quot;&gt;&lt;span class=&quot;mtable&quot;&gt;&lt;span class=&quot;col-align-r&quot;&gt;&lt;span class=&quot;vlist-t vlist-t2&quot;&gt;&lt;span class=&quot;vlist-r&quot;&gt;&lt;span class=&quot;vlist-s&quot;&gt;​&lt;/span&gt;&lt;/span&gt;&lt;span class=&quot;vlist-r&quot;&gt;&lt;span class=&quot;vlist&quot;&gt;&lt;/span&gt;&lt;/span&gt;&lt;/span&gt;&lt;/span&gt;&lt;span class=&quot;col-align-l&quot;&gt;&lt;span class=&quot;vlist-t vlist-t2&quot;&gt;&lt;span class=&quot;vlist-r&quot;&gt;&lt;span class=&quot;vlist&quot;&gt;&lt;span class=&quot;pstrut&quot;&gt;&lt;/span&gt;&lt;span class=&quot;mord&quot;&gt;&lt;span class=&quot;mord&quot;&gt;&lt;/span&gt;&lt;span class=&quot;mord mathnormal&quot;&gt;&lt;b&gt;A&lt;/b&gt;&lt;/span&gt;&lt;span class=&quot;mord mathnormal&quot;&gt;&lt;b&gt;x&lt;/b&gt;&amp;nbsp;&lt;/span&gt;&lt;span class=&quot;mspace&quot;&gt;&lt;/span&gt;&lt;span class=&quot;mrel&quot;&gt;≤&amp;nbsp;&lt;/span&gt;&lt;span class=&quot;mspace&quot;&gt;&lt;/span&gt;&lt;span class=&quot;mord mathnormal&quot;&gt;&lt;b&gt;b&lt;/b&gt;&lt;/span&gt;&lt;span class=&quot;mpunct&quot;&gt;,&amp;nbsp;&lt;/span&gt;&lt;/span&gt;&lt;span class=&quot;pstrut&quot;&gt;&lt;/span&gt;&lt;span class=&quot;mord&quot;&gt;&lt;span class=&quot;mord&quot;&gt;&lt;/span&gt;&lt;span class=&quot;mord mathnormal&quot;&gt;&lt;b&gt;C&lt;/b&gt;&lt;/span&gt;&lt;span class=&quot;mord mathnormal&quot;&gt;&lt;b&gt;x&lt;/b&gt;&amp;nbsp;&lt;/span&gt;&lt;span class=&quot;mspace&quot;&gt;&lt;/span&gt;&lt;span class=&quot;mrel&quot;&gt;≥&amp;nbsp;&lt;/span&gt;&lt;span class=&quot;mspace&quot;&gt;&lt;/span&gt;&lt;span class=&quot;mord mathnormal&quot;&gt;d&lt;/span&gt;&lt;span class=&quot;mpunct&quot;&gt;,&amp;nbsp;&lt;/span&gt;&lt;/span&gt;&lt;span class=&quot;pstrut&quot;&gt;&lt;/span&gt;&lt;span class=&quot;mord&quot;&gt;&lt;span class=&quot;mord&quot;&gt;&lt;/span&gt;&lt;span class=&quot;mord mathnormal&quot;&gt;&lt;b&gt;E&lt;/b&gt;&lt;/span&gt;&lt;span class=&quot;mord mathnormal&quot;&gt;&lt;b&gt;x&lt;/b&gt;&amp;nbsp;&lt;/span&gt;&lt;span class=&quot;mspace&quot;&gt;&lt;/span&gt;&lt;span class=&quot;mrel&quot;&gt;=&amp;nbsp;&lt;/span&gt;&lt;span class=&quot;mspace&quot;&gt;&lt;/span&gt;&lt;span class=&quot;mord mathnormal&quot;&gt;&lt;b&gt;f&lt;/b&gt;&lt;/span&gt;&lt;/span&gt;&lt;/span&gt;&lt;span class=&quot;vlist-s&quot;&gt;​&lt;/span&gt;&lt;/span&gt;&lt;/span&gt;&lt;/span&gt;&lt;/span&gt;&lt;/span&gt;&lt;span style=&quot;color: rgba(0, 0, 0, 0); font-family: monospace; font-size: 0px; text-align: start; text-wrap: nowrap;&quot;&gt;%3CmxGraphModel%3E%3Croot%3E%3CmxCell%20id%3D%220%22%2F%3E%3CmxCell%20id%3D%221%22%20parent%3D%220%22%2F%3E%3CmxCell%20id%3D%222%22%20value%3D%22%22%20style%3D%22shape%3DflexArrow%3BendArrow%3Dclassic%3Bhtml%3D1%3Brounded%3D0%3B%22%20edge%3D%221%22%20parent%3D%221%22%3E%3CmxGeometry%20width%3D%2250%22%20height%3D%2250%22%20relative%3D%221%22%20as%3D%22geometry%22%3E%3CmxPoint%20x%3D%22470%22%20y%3D%22399.33000000000004%22%20as%3D%22sourcePoint%22%2F%3E%3CmxPoint%20x%3D%22500%22%20y%3D%22399.33000000000004%22%20as%3D%22targetPoint%22%2F%3E%3C%2FmxGeometry%3E%3C%2FmxCell%3E%3C%2Froot%3E%3C%2FmxGraphModel%3E&lt;/span&gt;&lt;br&gt;&lt;/div&gt;&lt;/div&gt;" style="rounded=0;whiteSpace=wrap;html=1;fillColor=#ffe6cc;strokeColor=#d79b00;" vertex="1" parent="1">
          <mxGeometry x="490" y="240" width="170" height="80" as="geometry" />
        </mxCell>
        <mxCell id="9xwmRr_SfZecpN7bH8Jz-19" value="" style="ellipse;whiteSpace=wrap;html=1;fillColor=#dae8fc;strokeColor=#6c8ebf;" vertex="1" parent="1">
          <mxGeometry x="180" y="350" width="20" height="20" as="geometry" />
        </mxCell>
        <mxCell id="9xwmRr_SfZecpN7bH8Jz-20" value="" style="ellipse;whiteSpace=wrap;html=1;fillColor=#dae8fc;strokeColor=#6c8ebf;" vertex="1" parent="1">
          <mxGeometry x="180" y="390" width="20" height="20" as="geometry" />
        </mxCell>
        <mxCell id="9xwmRr_SfZecpN7bH8Jz-21" value="" style="ellipse;whiteSpace=wrap;html=1;fillColor=#dae8fc;strokeColor=#6c8ebf;" vertex="1" parent="1">
          <mxGeometry x="230" y="452.5" width="20" height="20" as="geometry" />
        </mxCell>
        <mxCell id="9xwmRr_SfZecpN7bH8Jz-23" value="" style="ellipse;whiteSpace=wrap;html=1;fillColor=#dae8fc;strokeColor=#6c8ebf;" vertex="1" parent="1">
          <mxGeometry x="230" y="412.5" width="20" height="20" as="geometry" />
        </mxCell>
        <mxCell id="9xwmRr_SfZecpN7bH8Jz-24" value="" style="ellipse;whiteSpace=wrap;html=1;fillColor=#dae8fc;strokeColor=#6c8ebf;" vertex="1" parent="1">
          <mxGeometry x="230" y="372.5" width="20" height="20" as="geometry" />
        </mxCell>
        <mxCell id="9xwmRr_SfZecpN7bH8Jz-25" value="" style="ellipse;whiteSpace=wrap;html=1;fillColor=#dae8fc;strokeColor=#6c8ebf;" vertex="1" parent="1">
          <mxGeometry x="230" y="327.5" width="20" height="20" as="geometry" />
        </mxCell>
        <mxCell id="9xwmRr_SfZecpN7bH8Jz-26" value="" style="ellipse;whiteSpace=wrap;html=1;fillColor=#dae8fc;strokeColor=#6c8ebf;" vertex="1" parent="1">
          <mxGeometry x="280" y="410" width="20" height="20" as="geometry" />
        </mxCell>
        <mxCell id="9xwmRr_SfZecpN7bH8Jz-27" value="" style="ellipse;whiteSpace=wrap;html=1;fillColor=#dae8fc;strokeColor=#6c8ebf;" vertex="1" parent="1">
          <mxGeometry x="280" y="360" width="20" height="20" as="geometry" />
        </mxCell>
        <mxCell id="9xwmRr_SfZecpN7bH8Jz-28" value="" style="ellipse;whiteSpace=wrap;html=1;fillColor=#dae8fc;strokeColor=#6c8ebf;" vertex="1" parent="1">
          <mxGeometry x="180" y="430" width="20" height="20" as="geometry" />
        </mxCell>
        <mxCell id="9xwmRr_SfZecpN7bH8Jz-36" value="" style="endArrow=none;html=1;rounded=0;fillColor=#dae8fc;strokeColor=#6c8ebf;" edge="1" parent="1">
          <mxGeometry width="50" height="50" relative="1" as="geometry">
            <mxPoint x="200" y="400" as="sourcePoint" />
            <mxPoint x="230" y="340" as="targetPoint" />
          </mxGeometry>
        </mxCell>
        <mxCell id="9xwmRr_SfZecpN7bH8Jz-37" value="" style="endArrow=none;html=1;rounded=0;exitX=0;exitY=0.5;exitDx=0;exitDy=0;fillColor=#dae8fc;strokeColor=#6c8ebf;" edge="1" parent="1" source="9xwmRr_SfZecpN7bH8Jz-26">
          <mxGeometry width="50" height="50" relative="1" as="geometry">
            <mxPoint x="360" y="447.5" as="sourcePoint" />
            <mxPoint x="250" y="340" as="targetPoint" />
          </mxGeometry>
        </mxCell>
        <mxCell id="9xwmRr_SfZecpN7bH8Jz-40" value="" style="endArrow=none;html=1;rounded=0;fillColor=#dae8fc;strokeColor=#6c8ebf;" edge="1" parent="1">
          <mxGeometry width="50" height="50" relative="1" as="geometry">
            <mxPoint x="200" y="360" as="sourcePoint" />
            <mxPoint x="230" y="340" as="targetPoint" />
          </mxGeometry>
        </mxCell>
        <mxCell id="9xwmRr_SfZecpN7bH8Jz-41" value="" style="endArrow=none;html=1;rounded=0;fillColor=#dae8fc;strokeColor=#6c8ebf;" edge="1" parent="1">
          <mxGeometry width="50" height="50" relative="1" as="geometry">
            <mxPoint x="200" y="400" as="sourcePoint" />
            <mxPoint x="230" y="380" as="targetPoint" />
          </mxGeometry>
        </mxCell>
        <mxCell id="9xwmRr_SfZecpN7bH8Jz-42" value="" style="endArrow=none;html=1;rounded=0;entryX=0;entryY=0.5;entryDx=0;entryDy=0;fillColor=#dae8fc;strokeColor=#6c8ebf;" edge="1" parent="1">
          <mxGeometry width="50" height="50" relative="1" as="geometry">
            <mxPoint x="200" y="440" as="sourcePoint" />
            <mxPoint x="230" y="420" as="targetPoint" />
          </mxGeometry>
        </mxCell>
        <mxCell id="9xwmRr_SfZecpN7bH8Jz-43" value="" style="endArrow=none;html=1;rounded=0;fillColor=#dae8fc;strokeColor=#6c8ebf;" edge="1" parent="1">
          <mxGeometry width="50" height="50" relative="1" as="geometry">
            <mxPoint x="200" y="360" as="sourcePoint" />
            <mxPoint x="230" y="380" as="targetPoint" />
          </mxGeometry>
        </mxCell>
        <mxCell id="9xwmRr_SfZecpN7bH8Jz-44" value="" style="endArrow=none;html=1;rounded=0;fillColor=#dae8fc;strokeColor=#6c8ebf;" edge="1" parent="1">
          <mxGeometry width="50" height="50" relative="1" as="geometry">
            <mxPoint x="200" y="400" as="sourcePoint" />
            <mxPoint x="230" y="420" as="targetPoint" />
          </mxGeometry>
        </mxCell>
        <mxCell id="9xwmRr_SfZecpN7bH8Jz-45" value="" style="endArrow=none;html=1;rounded=0;fillColor=#dae8fc;strokeColor=#6c8ebf;" edge="1" parent="1">
          <mxGeometry width="50" height="50" relative="1" as="geometry">
            <mxPoint x="200" y="440" as="sourcePoint" />
            <mxPoint x="230" y="460" as="targetPoint" />
          </mxGeometry>
        </mxCell>
        <mxCell id="9xwmRr_SfZecpN7bH8Jz-46" value="" style="endArrow=none;html=1;rounded=0;entryX=0;entryY=0.5;entryDx=0;entryDy=0;fillColor=#dae8fc;strokeColor=#6c8ebf;" edge="1" parent="1" target="9xwmRr_SfZecpN7bH8Jz-27">
          <mxGeometry width="50" height="50" relative="1" as="geometry">
            <mxPoint x="250" y="340" as="sourcePoint" />
            <mxPoint x="280" y="360" as="targetPoint" />
          </mxGeometry>
        </mxCell>
        <mxCell id="9xwmRr_SfZecpN7bH8Jz-47" value="" style="endArrow=none;html=1;rounded=0;entryX=0;entryY=0.5;entryDx=0;entryDy=0;exitX=1;exitY=0.5;exitDx=0;exitDy=0;fillColor=#dae8fc;strokeColor=#6c8ebf;" edge="1" parent="1" source="9xwmRr_SfZecpN7bH8Jz-24" target="9xwmRr_SfZecpN7bH8Jz-26">
          <mxGeometry width="50" height="50" relative="1" as="geometry">
            <mxPoint x="250" y="380" as="sourcePoint" />
            <mxPoint x="280" y="400" as="targetPoint" />
          </mxGeometry>
        </mxCell>
        <mxCell id="9xwmRr_SfZecpN7bH8Jz-48" value="" style="endArrow=none;html=1;rounded=0;fillColor=#dae8fc;strokeColor=#6c8ebf;" edge="1" parent="1">
          <mxGeometry width="50" height="50" relative="1" as="geometry">
            <mxPoint x="250" y="383" as="sourcePoint" />
            <mxPoint x="280" y="370" as="targetPoint" />
          </mxGeometry>
        </mxCell>
        <mxCell id="9xwmRr_SfZecpN7bH8Jz-49" value="" style="endArrow=none;html=1;rounded=0;exitX=1;exitY=0.5;exitDx=0;exitDy=0;fillColor=#dae8fc;strokeColor=#6c8ebf;" edge="1" parent="1" source="9xwmRr_SfZecpN7bH8Jz-23">
          <mxGeometry width="50" height="50" relative="1" as="geometry">
            <mxPoint x="250" y="432.5" as="sourcePoint" />
            <mxPoint x="280" y="419.5" as="targetPoint" />
          </mxGeometry>
        </mxCell>
        <mxCell id="9xwmRr_SfZecpN7bH8Jz-50" value="" style="endArrow=none;html=1;rounded=0;exitX=1;exitY=0.5;exitDx=0;exitDy=0;fillColor=#dae8fc;strokeColor=#6c8ebf;" edge="1" parent="1" source="9xwmRr_SfZecpN7bH8Jz-21">
          <mxGeometry width="50" height="50" relative="1" as="geometry">
            <mxPoint x="250" y="443" as="sourcePoint" />
            <mxPoint x="280" y="420" as="targetPoint" />
          </mxGeometry>
        </mxCell>
        <mxCell id="9xwmRr_SfZecpN7bH8Jz-51" value="" style="endArrow=none;html=1;rounded=0;exitX=1;exitY=0.5;exitDx=0;exitDy=0;fillColor=#dae8fc;strokeColor=#6c8ebf;" edge="1" parent="1" source="9xwmRr_SfZecpN7bH8Jz-23">
          <mxGeometry width="50" height="50" relative="1" as="geometry">
            <mxPoint x="280" y="413" as="sourcePoint" />
            <mxPoint x="279" y="370" as="targetPoint" />
          </mxGeometry>
        </mxCell>
        <mxCell id="9xwmRr_SfZecpN7bH8Jz-52" value="" style="endArrow=none;html=1;rounded=0;exitX=1;exitY=0.5;exitDx=0;exitDy=0;fillColor=#dae8fc;strokeColor=#6c8ebf;" edge="1" parent="1" source="9xwmRr_SfZecpN7bH8Jz-21">
          <mxGeometry width="50" height="50" relative="1" as="geometry">
            <mxPoint x="290" y="423" as="sourcePoint" />
            <mxPoint x="280" y="370" as="targetPoint" />
          </mxGeometry>
        </mxCell>
        <mxCell id="9xwmRr_SfZecpN7bH8Jz-53" value="" style="endArrow=none;html=1;rounded=0;fillColor=#dae8fc;strokeColor=#6c8ebf;" edge="1" parent="1">
          <mxGeometry width="50" height="50" relative="1" as="geometry">
            <mxPoint x="200" y="440" as="sourcePoint" />
            <mxPoint x="230" y="380" as="targetPoint" />
          </mxGeometry>
        </mxCell>
        <mxCell id="9xwmRr_SfZecpN7bH8Jz-54" value="" style="endArrow=none;html=1;rounded=0;fillColor=#dae8fc;strokeColor=#6c8ebf;" edge="1" parent="1">
          <mxGeometry width="50" height="50" relative="1" as="geometry">
            <mxPoint x="230" y="460" as="sourcePoint" />
            <mxPoint x="200" y="400" as="targetPoint" />
          </mxGeometry>
        </mxCell>
        <mxCell id="9xwmRr_SfZecpN7bH8Jz-55" value="" style="endArrow=none;html=1;rounded=0;fillColor=#dae8fc;strokeColor=#6c8ebf;" edge="1" parent="1">
          <mxGeometry width="50" height="50" relative="1" as="geometry">
            <mxPoint x="230" y="460" as="sourcePoint" />
            <mxPoint x="200" y="360" as="targetPoint" />
          </mxGeometry>
        </mxCell>
        <mxCell id="9xwmRr_SfZecpN7bH8Jz-56" value="" style="endArrow=none;html=1;rounded=0;fillColor=#dae8fc;strokeColor=#6c8ebf;" edge="1" parent="1">
          <mxGeometry width="50" height="50" relative="1" as="geometry">
            <mxPoint x="200" y="440" as="sourcePoint" />
            <mxPoint x="230" y="340" as="targetPoint" />
          </mxGeometry>
        </mxCell>
        <mxCell id="9xwmRr_SfZecpN7bH8Jz-57" value="" style="endArrow=none;html=1;rounded=0;fillColor=#dae8fc;strokeColor=#6c8ebf;" edge="1" parent="1">
          <mxGeometry width="50" height="50" relative="1" as="geometry">
            <mxPoint x="230" y="420" as="sourcePoint" />
            <mxPoint x="200" y="360" as="targetPoint" />
          </mxGeometry>
        </mxCell>
        <mxCell id="9xwmRr_SfZecpN7bH8Jz-58" value="&lt;font style=&quot;font-size: 16px;&quot;&gt;Neural Network&lt;/font&gt;" style="rounded=0;whiteSpace=wrap;html=1;opacity=60;" vertex="1" parent="1">
          <mxGeometry x="180" y="370" width="120" height="60" as="geometry" />
        </mxCell>
      </root>
    </mxGraphModel>
  </diagram>
</mxfile>
